<svg width="22" height="22" viewBox="0 0 22 22" fill="none" xmlns="http://www.w3.org/2000/svg">
<g opacity="0.6" clip-path="url(#clip0_2_305)">
<path d="M1.83337 3.66025C1.83505 3.41951 1.93137 3.1891 2.10151 3.01878C2.27166 2.84847 2.50197 2.75192 2.74271 2.75H19.2574C19.7597 2.75 20.1667 3.15792 20.1667 3.66025V18.3398C20.165 18.5805 20.0687 18.8109 19.8986 18.9812C19.7284 19.1515 19.4981 19.2481 19.2574 19.25H2.74271C2.50145 19.2498 2.27016 19.1537 2.09966 18.9831C1.92915 18.8124 1.83337 18.581 1.83337 18.3398V3.66025ZM10.0834 4.58333H3.66671V17.4167H10.0834V4.58333ZM11.9167 4.58333V17.4167H18.3334V4.58333H11.9167ZM12.8334 6.41667H17.4167V8.25H12.8334V6.41667ZM12.8334 9.16667H17.4167V11H12.8334V9.16667Z" fill="white"/>
</g>
<defs>
<clipPath id="clip0_2_305">
<rect width="22" height="22" fill="white"/>
</clipPath>
</defs>
</svg>
