<svg width="32" height="32" viewBox="0 0 32 32" fill="none" xmlns="http://www.w3.org/2000/svg">
<g clip-path="url(#clip0_2_294)">
<path d="M21.3334 16.8893L7.70269 25.976C7.60229 26.0428 7.48566 26.0811 7.36521 26.0869C7.24476 26.0927 7.125 26.0656 7.01869 26.0087C6.91237 25.9518 6.82349 25.8671 6.76151 25.7637C6.69952 25.6602 6.66675 25.5419 6.66669 25.4213V6.57867C6.66675 6.45808 6.69952 6.33976 6.76151 6.23632C6.82349 6.13288 6.91237 6.0482 7.01869 5.99128C7.125 5.93436 7.24476 5.90734 7.36521 5.9131C7.48566 5.91887 7.60229 5.95719 7.70269 6.024L21.3334 15.1107V6.66667C21.3334 6.31304 21.4738 5.97391 21.7239 5.72386C21.9739 5.47381 22.3131 5.33333 22.6667 5.33333C23.0203 5.33333 23.3594 5.47381 23.6095 5.72386C23.8595 5.97391 24 6.31304 24 6.66667V25.3333C24 25.687 23.8595 26.0261 23.6095 26.2761C23.3594 26.5262 23.0203 26.6667 22.6667 26.6667C22.3131 26.6667 21.9739 26.5262 21.7239 26.2761C21.4738 26.0261 21.3334 25.687 21.3334 25.3333V16.8893ZM9.33335 10.316V21.684L17.8587 16L9.33335 10.316Z" fill="white"/>
</g>
<defs>
<clipPath id="clip0_2_294">
<rect width="32" height="32" fill="white"/>
</clipPath>
</defs>
</svg>
