<svg width="32" height="32" viewBox="0 0 32 32" fill="none" xmlns="http://www.w3.org/2000/svg">
<g clip-path="url(#clip0_2_280)">
<path d="M10.6666 15.1107L24.2973 6.024C24.3977 5.9572 24.5143 5.91887 24.6348 5.91311C24.7552 5.90735 24.875 5.93436 24.9813 5.99128C25.0876 6.0482 25.1765 6.13289 25.2385 6.23633C25.3005 6.33976 25.3333 6.45808 25.3333 6.57867L25.3333 25.4213C25.3333 25.5419 25.3005 25.6602 25.2385 25.7637C25.1765 25.8671 25.0876 25.9518 24.9813 26.0087C24.875 26.0656 24.7552 26.0927 24.6348 26.0869C24.5143 26.0811 24.3977 26.0428 24.2973 25.976L10.6666 16.8893L10.6666 25.3333C10.6666 25.687 10.5262 26.0261 10.2761 26.2761C10.0261 26.5262 9.68693 26.6667 9.33331 26.6667C8.97969 26.6667 8.64055 26.5262 8.3905 26.2761C8.14045 26.0261 7.99998 25.687 7.99998 25.3333L7.99998 6.66667C7.99998 6.31305 8.14045 5.97391 8.3905 5.72386C8.64055 5.47381 8.97969 5.33334 9.33331 5.33334C9.68693 5.33334 10.0261 5.47381 10.2761 5.72386C10.5262 5.97391 10.6666 6.31305 10.6666 6.66667V15.1107ZM22.6666 21.684L22.6666 10.316L14.1413 16L22.6666 21.684Z" fill="white"/>
</g>
<defs>
<clipPath id="clip0_2_280">
<rect width="32" height="32" fill="white" transform="matrix(-1 0 0 -1 32 32)"/>
</clipPath>
</defs>
</svg>
