<svg width="32" height="32" viewBox="0 0 32 32" fill="none" xmlns="http://www.w3.org/2000/svg">
<g clip-path="url(#clip0_2_283)">
<path d="M7.28398 26.0893C9.70339 28.1858 12.7986 29.3378 16 29.3333C23.364 29.3333 29.3333 23.364 29.3333 16C29.3333 8.636 23.364 2.66667 16 2.66667C8.63598 2.66667 2.66665 8.636 2.66665 16C2.66665 18.848 3.55998 21.488 5.07998 23.6533L9.33331 16H5.33331C5.33351 13.5416 6.18289 11.1588 7.73775 9.25452C9.29261 7.35029 11.4575 6.04159 13.8662 5.54981C16.2749 5.05803 18.7795 5.41336 20.9564 6.55569C23.1333 7.69802 24.8487 9.55722 25.8126 11.8188C26.7765 14.0803 26.9296 16.6054 26.246 18.9669C25.5624 21.3283 24.0841 23.3811 22.0612 24.7781C20.0383 26.175 17.5949 26.8304 15.1445 26.6332C12.694 26.436 10.3868 25.3984 8.61331 23.696L7.28398 26.0893Z" fill="white"/>
<path d="M13.304 14.68L12.168 15.68L11.488 14.896L13.336 13.336H14.456V19H13.304V14.68ZM19.8704 14.392H17.6224L17.5984 15.264C17.721 15.2213 17.889 15.2 18.1024 15.2C18.3904 15.2 18.6544 15.2427 18.8944 15.328C19.1344 15.4133 19.3397 15.5387 19.5104 15.704C19.6864 15.864 19.8224 16.0613 19.9184 16.296C20.0144 16.5253 20.0624 16.784 20.0624 17.072C20.0624 17.392 20.0064 17.6773 19.8944 17.928C19.7877 18.1787 19.6384 18.392 19.4464 18.568C19.2544 18.7387 19.025 18.8693 18.7584 18.96C18.497 19.0507 18.2117 19.096 17.9024 19.096C17.4117 19.096 17.001 18.976 16.6704 18.736C16.3397 18.496 16.113 18.1333 15.9904 17.648L17.2464 17.36C17.2784 17.5627 17.3637 17.728 17.5024 17.856C17.641 17.9787 17.8144 18.04 18.0224 18.04C18.2784 18.04 18.481 17.96 18.6304 17.8C18.785 17.64 18.8624 17.4373 18.8624 17.192C18.8624 17.0053 18.8224 16.8533 18.7424 16.736C18.6677 16.6133 18.5664 16.5173 18.4384 16.448C18.3157 16.3733 18.177 16.3227 18.0224 16.296C17.8677 16.2693 17.713 16.256 17.5584 16.256C17.361 16.256 17.161 16.2747 16.9584 16.312C16.761 16.3493 16.569 16.4 16.3824 16.464L16.4464 13.336H19.8704V14.392Z" fill="white"/>
</g>
<defs>
<clipPath id="clip0_2_283">
<rect width="32" height="32" fill="white" transform="matrix(-1 0 0 1 32 0)"/>
</clipPath>
</defs>
</svg>
