<svg width="32" height="32" viewBox="0 0 32 32" fill="none" xmlns="http://www.w3.org/2000/svg">
<g clip-path="url(#clip0_2_290)">
<path d="M24.716 26.0893C22.2966 28.1858 19.2014 29.3378 16 29.3333C8.63602 29.3333 2.66669 23.364 2.66669 16C2.66669 8.636 8.63602 2.66667 16 2.66667C23.364 2.66667 29.3334 8.636 29.3334 16C29.3334 18.848 28.44 21.488 26.92 23.6533L22.6667 16H26.6667C26.6665 13.5416 25.8171 11.1588 24.2623 9.25452C22.7074 7.35029 20.5425 6.04159 18.1338 5.54981C15.7251 5.05803 13.2205 5.41336 11.0436 6.55569C8.86672 7.69802 7.15125 9.55722 6.18739 11.8188C5.22352 14.0803 5.07043 16.6054 5.75401 18.9669C6.43759 21.3283 7.91588 23.3811 9.9388 24.7781C11.9617 26.175 14.4051 26.8304 16.8555 26.6332C19.306 26.436 21.6132 25.3984 23.3867 23.696L24.716 26.0893Z" fill="white"/>
<path d="M13.304 14.68L12.168 15.68L11.488 14.896L13.336 13.336H14.456V19H13.304V14.68ZM19.8704 14.392H17.6224L17.5984 15.264C17.721 15.2213 17.889 15.2 18.1024 15.2C18.3904 15.2 18.6544 15.2427 18.8944 15.328C19.1344 15.4133 19.3397 15.5387 19.5104 15.704C19.6864 15.864 19.8224 16.0613 19.9184 16.296C20.0144 16.5253 20.0624 16.784 20.0624 17.072C20.0624 17.392 20.0064 17.6773 19.8944 17.928C19.7877 18.1787 19.6384 18.392 19.4464 18.568C19.2544 18.7387 19.025 18.8693 18.7584 18.96C18.497 19.0507 18.2117 19.096 17.9024 19.096C17.4117 19.096 17.001 18.976 16.6704 18.736C16.3397 18.496 16.113 18.1333 15.9904 17.648L17.2464 17.36C17.2784 17.5627 17.3637 17.728 17.5024 17.856C17.641 17.9787 17.8144 18.04 18.0224 18.04C18.2784 18.04 18.481 17.96 18.6304 17.8C18.785 17.64 18.8624 17.4373 18.8624 17.192C18.8624 17.0053 18.8224 16.8533 18.7424 16.736C18.6677 16.6133 18.5664 16.5173 18.4384 16.448C18.3157 16.3733 18.177 16.3227 18.0224 16.296C17.8677 16.2693 17.713 16.256 17.5584 16.256C17.361 16.256 17.161 16.2747 16.9584 16.312C16.761 16.3493 16.569 16.4 16.3824 16.464L16.4464 13.336H19.8704V14.392Z" fill="white"/>
</g>
<defs>
<clipPath id="clip0_2_290">
<rect width="32" height="32" fill="white"/>
</clipPath>
</defs>
</svg>
