<svg width="19" height="22" viewBox="0 0 19 22" fill="none" xmlns="http://www.w3.org/2000/svg">
<path d="M11.12 16.023L6.92102 13.733C6.37282 14.3191 5.66101 14.7267 4.8781 14.9029C4.09518 15.0791 3.27737 15.0157 2.53094 14.7211C1.78452 14.4264 1.14398 13.914 0.692591 13.2505C0.241198 12.587 -0.000183105 11.803 -0.000183105 11.0005C-0.000183105 10.198 0.241198 9.41408 0.692591 8.75058C1.14398 8.08707 1.78452 7.57467 2.53094 7.27998C3.27737 6.98529 4.09518 6.92193 4.8781 7.09813C5.66101 7.27434 6.37282 7.68196 6.92102 8.26802L11.121 5.97802C10.8826 5.03409 10.9966 4.03561 11.4417 3.16972C11.8867 2.30384 12.6323 1.63 13.5387 1.27452C14.445 0.919042 15.4499 0.906325 16.365 1.23875C17.2801 1.57118 18.0425 2.22594 18.5093 3.08028C18.9762 3.93463 19.1154 4.92991 18.9009 5.87957C18.6864 6.82922 18.133 7.66806 17.3443 8.23883C16.5555 8.8096 15.5857 9.07313 14.6166 8.98001C13.6475 8.8869 12.7456 8.44353 12.08 7.73302L7.88002 10.023C8.04123 10.6644 8.04123 11.3357 7.88002 11.977L12.079 14.267C12.7446 13.5565 13.6465 13.1131 14.6156 13.02C15.5847 12.9269 16.5545 13.1904 17.3433 13.7612C18.132 14.332 18.6854 15.1708 18.8999 16.1205C19.1144 17.0701 18.9752 18.0654 18.5083 18.9198C18.0415 19.7741 17.2791 20.4289 16.364 20.7613C15.4489 21.0937 14.444 21.081 13.5377 20.7255C12.6313 20.37 11.8857 19.6962 11.4407 18.8303C10.9956 17.9644 10.8816 16.9659 11.12 16.022V16.023ZM4.00002 13C4.53046 13 5.03916 12.7893 5.41424 12.4142C5.78931 12.0392 6.00002 11.5305 6.00002 11C6.00002 10.4696 5.78931 9.96088 5.41424 9.58581C5.03916 9.21073 4.53046 9.00002 4.00002 9.00002C3.46959 9.00002 2.96088 9.21073 2.58581 9.58581C2.21074 9.96088 2.00002 10.4696 2.00002 11C2.00002 11.5305 2.21074 12.0392 2.58581 12.4142C2.96088 12.7893 3.46959 13 4.00002 13ZM15 7.00002C15.5305 7.00002 16.0392 6.78931 16.4142 6.41423C16.7893 6.03916 17 5.53045 17 5.00002C17 4.46959 16.7893 3.96088 16.4142 3.58581C16.0392 3.21073 15.5305 3.00002 15 3.00002C14.4696 3.00002 13.9609 3.21073 13.5858 3.58581C13.2107 3.96088 13 4.46959 13 5.00002C13 5.53045 13.2107 6.03916 13.5858 6.41423C13.9609 6.78931 14.4696 7.00002 15 7.00002ZM15 19C15.5305 19 16.0392 18.7893 16.4142 18.4142C16.7893 18.0392 17 17.5305 17 17C17 16.4696 16.7893 15.9609 16.4142 15.5858C16.0392 15.2107 15.5305 15 15 15C14.4696 15 13.9609 15.2107 13.5858 15.5858C13.2107 15.9609 13 16.4696 13 17C13 17.5305 13.2107 18.0392 13.5858 18.4142C13.9609 18.7893 14.4696 19 15 19Z" fill="white"/>
</svg>
